# xmcd
#
# Track frame offsets: 
#        150
#        12610
#        29345
#        45327
#        65312
#        87827
#        103385
#        116412
#        136442
#        163370
#
# Disc length: 2355 seconds
#
# Revision: 0
# Processed by: cddbd v1.5.2PL0 Copyright (c) Steve Scherf et al.
# Submitted via: ExactAudioCopy v0.99pb5
#
DISCID=8609310a
DTITLE=Jimmy Rogers and Big Moose Walker - Chicago Bound 
DYEAR=1994
DGENRE=Blues
TTITLE0=Chicago Bound
TTITLE1=St Louis
TTITLE2=Do You Swear
TTITLE3=Anna Lee
TTITLE4=Sloppy Drunk
TTITLE5=Lemon Squeezer
TTITLE6=Last Time
TTITLE7=Whoopin' Foolin' With You
TTITLE8=One Room Little Country Shack
TTITLE9=Goin' Away Baby
EXTD=
EXTT0=
EXTT1=
EXTT2=
EXTT3=
EXTT4=
EXTT5=
EXTT6=
EXTT7=
EXTT8=
EXTT9=
PLAYORDER=
